<mxfile host="app.diagrams.net" modified="2023-05-17T10:00:38.093Z" agent="Mozilla/5.0 (Windows NT 10.0; Win64; x64) AppleWebKit/537.36 (KHTML, like Gecko) Chrome/113.0.0.0 Safari/537.36" version="21.3.2" etag="2u1TFLy8RJuOxuiE1yWM" type="github">
  <diagram name="Page-1" id="1x-0oucLndOyj_WBH4Q2">
    <mxGraphModel>
      <root>
        <mxCell id="0" />
        <mxCell id="1" parent="0" />
      </root>
    </mxGraphModel>
  </diagram>
</mxfile>
